<?xml version="1.0" encoding="utf-8"?>
<!-- Generator: Adobe Illustrator 18.0.0, SVG Export Plug-In . SVG Version: 6.00 Build 0)  -->
<!DOCTYPE svg PUBLIC "-//W3C//DTD SVG 1.1//EN" "http://www.w3.org/Graphics/SVG/1.1/DTD/svg11.dtd">
<svg version="1.1" id="Layer_1" xmlns="http://www.w3.org/2000/svg" xmlns:xlink="http://www.w3.org/1999/xlink" x="0px" y="0px"
	 viewBox="0 0 1700 1400" enable-background="new 0 0 1700 1400" xml:space="preserve">
<g>
	<rect fill="#FFFFFF" width="1700" height="1400"/>
	<g>
		<g>
			<defs>
				<path id="SVGID_3_" d="M1357.1,1339.9H342.9C192.7,1339.9,71,1218.2,71,1068V390.4c0-150.2,121.7-271.9,271.9-271.9h1014.2
					c150.2,0,271.9,121.7,271.9,271.9V1068C1629,1218.2,1507.3,1339.9,1357.1,1339.9z"/>
			</defs>
			<clipPath id="SVGID_2_">
				<use xlink:href="#SVGID_3_"  overflow="visible"/>
			</clipPath>
			<g clip-path="url(#SVGID_2_)">
				<g>
					<path fill="#0EA6DB" d="M1153.6,660.2c-18.9-18.2-63.2-20.2-72.6-5.2l29.1,23.4L1153.6,660.2z"/>
					<g>
						<path fill="#273542" d="M1020,1235.3c-1.9-28.2-3.2-47.2-3.2-47.2l-363-8.7c-0.6,14.6-1,33.9-1.2,55.2
							C772.9,1263,899.7,1263.2,1020,1235.3z"/>
						<path fill="#344558" d="M652.7,1234.6c-0.7,81.9,1.2,194.6,1.2,194.6h382c-5.6-50.8-12.1-139.4-15.8-193.9
							C899.7,1263.2,772.9,1263,652.7,1234.6z"/>
					</g>
					<g>
						<path fill="#0EA6DB" d="M437.4,667.9c18.9-18.2,63.2-20.2,72.6-5.2l-29.1,23.4L437.4,667.9z"/>
						<g>
							<path fill="#EB633E" d="M453.4,667.4c0,6.7-0.4,13.5-1.3,20.2c16.6,7.2,38.4,6.7,53.7-3c-3.6-7.6-4.4-15.8-3.6-24.1
								C487.4,668.3,469.8,670.8,453.4,667.4z"/>
							<path fill="#EB633E" d="M1088.9,653.5c0.7,8-0.2,15.9-3.7,23.3c15.3,9.8,37,10.2,53.7,3c-0.8-6-1.2-12.1-1.3-18.1
								C1121.1,664.6,1103.5,661.6,1088.9,653.5z"/>
							<path fill="#FFBF83" d="M1147.5,605.9c6.5-17.2,16.3-33.5,18.2-51.8c1.9-18.3-7.7-39.8-25.9-42.7
								c-14.3-2.3-28.2,7.9-34.8,20.8c-6.6,12.9-7.5,27.8-8.3,42.2c-0.3,6.1-0.7,12.3-1,18.4l-9.4-20.4c-3.7-7.9-15.4-5.7-16,3
								c-0.8,13,3.2,27.2,7.9,39.7c4.6,12.3,9.6,25.5,10.6,38.4c14.6,8.2,32.2,11.1,48.7,8.2
								C1137.4,642.7,1140.7,623.6,1147.5,605.9z"/>
							<g>
								<path fill="#F89E6A" d="M474.8,571.5c6.6-6.9,11.4-15.4,14.3-24.4c-0.9-2.5-1.9-4.9-3.1-7.2c-6.6-12.9-20.5-23.1-34.8-20.8
									c-18.1,3-27.7,24.5-25.9,42.7c1,10.2,4.5,19.8,8.6,29.2C449.3,589.6,464.2,582.7,474.8,571.5z"/>
								<path fill="#FFBF83" d="M520.7,583.1c-0.5-8.7-12.3-10.9-16-3l-9.4,20.4c-0.3-6.1-0.7-12.3-1-18.4
									c-0.6-11.8-1.4-23.9-5.2-35c-2.9,9.1-7.7,17.5-14.3,24.4c-10.6,11.2-25.5,18-40.9,19.5c3.2,7.5,6.7,15,9.6,22.5
									c6.5,17.1,9.8,35.4,9.9,53.8c16.4,3.4,34,0.9,48.7-6.9c1.2-12.6,6.1-25.6,10.6-37.6C517.4,610.3,521.5,596.1,520.7,583.1z"
									/>
							</g>
						</g>
						<path fill="#34BAF4" d="M677.4,791.8c-36.5,77.4-87,147.4-148.3,206.4c-33.5,32.3-89.3,8.9-89.6-37.6
							c-0.6-97.5,0.3-194.4-2.2-292.7c22.4,9.3,51.5,6.9,72.6-5.2v252.9c0,0,81.4-200.5,158.5-269.9
							C671.9,693.3,697.7,748.7,677.4,791.8z"/>
						<path fill="#34BAF4" d="M974.9,765.7c36.5,77.4,25.7,165.7,87,224.8c33.5,32.3,89.3,8.9,89.6-37.6
							c0.6-97.5-0.3-194.4,2.2-292.7c-22.4,9.3-51.5,6.9-72.6-5.2v252.9c0,0-16.2-186.4-57.4-262.1
							C1020.2,693.3,954.5,722.7,974.9,765.7z"/>
					</g>
					<g>
						<path fill="#53C3FF" d="M1035.4,1000.4c1.3-132.3,0-290.3-11.8-354.6c0,0-122.8-34.6-177.6-30.2
							c-54.8-4.4-177.6,30.2-177.6,30.2c-11.6,63.2-17.9,215.6-21.3,345.1C775.4,990,907.6,995.1,1035.4,1000.4z"/>
						<path fill="#53C3FF" d="M644.8,1099.4c-1.1,61.8-1.4,103.9-1.4,103.9c59.9,13.1,328,18.4,387.9,5.3c0,0,2.8-87.1,4-194.5
							C906.4,1048.1,776.1,1076.6,644.8,1099.4z"/>
						<path fill="#1DA1DB" d="M1035.4,1000.4c-127.8-5.3-260-10.4-388.3-9.6c-1,39.3-1.8,76.5-2.4,108.5
							c131.3-22.8,261.7-51.2,390.5-85.2C1035.4,1009.6,1035.4,1005,1035.4,1000.4z"/>
					</g>
					<g>
						<path fill="#EB633E" d="M882.1,596.2c-6.1-24-5.7-49.7,2.6-72.7c-26-1.7-55.9-4-81.9-5.7c7.3,25,5.8,52.3-3.4,76.6
							c11.4,5.7,23.9,9.2,36.6,10.1C851.8,605.5,867.7,602.6,882.1,596.2z"/>
						<path fill="#FFBF83" d="M836.1,604.4c-12.7-0.9-25.2-4.4-36.6-10.1c-4.2,11.2-10.1,21.8-17.5,31.2
							c13.1,17.5,34.2,28.7,56,29.8c21.8,1.1,43.9-8.1,58.6-24.3c-6.4-10.8-11.2-22.6-14.4-34.9
							C867.7,602.6,851.8,605.5,836.1,604.4z"/>
					</g>
					<path fill="#F89E6A" d="M758.8,464c0.5-4.2,1-8.3,1.5-12.5c0.8-7,1.5-14.7-2.5-20.5c-4.5-6.4-14-8.1-21-4.7
						c-7,3.5-11.3,11.2-11.9,19c-0.6,7.8,2.2,15.6,6.4,22.1c2.6,4,6,7.8,10.4,9.7c4.4,1.9,10.1,1.4,13.4-2.1
						C757.7,472.2,758.3,468,758.8,464z"/>
					<path fill="#F89E6A" d="M931.6,495.7c-3.8-4.9-2.9-12-1.7-18.1c1.5-7.9,3-15.7,4.4-23.6c4.2-4.5,9.1-9.3,15.3-9.6
						c5.9-0.3,11.3,4,13.9,9.4c2.6,5.3,2.7,11.5,2.1,17.4c-0.6,6.4-2.1,12.8-5.5,18.3c-3.4,5.5-8.8,9.8-15.2,10.9
						C940,501.1,934.6,499.6,931.6,495.7z"/>
					<path fill="#FFBF83" d="M849.6,299.6L849.6,299.6c-53-1.3-97,40.6-98.4,93.6L749,483c-1.3,53,40.6,97,93.6,98.4l0,0
						c53,1.3,97-40.6,98.4-93.6l2.2-89.8C944.5,345,902.6,300.9,849.6,299.6z"/>
					<path fill="#52274C" d="M941.5,463.5c0.7-14.9-3-33.9-7.7-48c-2.2-6.6-5-13-7.4-19.6c-5.2-14.9-7.9-30.6-7.9-46.4
						c-45.9,20.7-101,20-146.4-1.9c-0.6,10.2-4.2,19.1-6.9,29c-5.6,20.7-9.6,44.4-15.2,65.1c-1.2-19.8-2.9-40-4.1-59.8
						c-0.5-8.3-1-16.7,0.7-24.9c1.7-8.1,5.9-16.1,13-20.5c-3.6-11.8,1.8-26.5,10.7-35.1c8.9-8.6,20.8-13.3,32.7-16.8
						c26.9-8,55.4-10.7,83.4-8.2c11.3,1,22.6,3,32.9,7.8c10.2,4.8,19.4,12.8,23.7,23.3c4.3,10.5,3.2,23.5-4.4,31.9
						C976.3,367.2,941.5,463.5,941.5,463.5z"/>
					<g>
						<g>
							<path fill="#52274C" d="M789.8,417.5c10.5-4.8,23.2-2.8,31.8,4.7c4.4,3.8,10.7-2.5,6.4-6.4c-11.9-10.4-28.4-12.7-42.7-6.2
								C780,412.1,784.6,419.9,789.8,417.5L789.8,417.5z"/>
						</g>
					</g>
					<g>
						<g>
							<path fill="#52274C" d="M869.3,424.5c10.2-8.2,24.6-7.5,34.3,1.2c4.3,3.9,10.7-2.5,6.4-6.4c-13.6-12.2-32.8-12.5-47-1.2
								C858.3,421.7,864.8,428,869.3,424.5L869.3,424.5z"/>
						</g>
					</g>
					<g>
						<g>
							<path fill="#52274C" d="M797.8,442.7c3.4-1.3,6.9-0.8,9.6,1.8c4.1,4.1,10.5-2.3,6.4-6.4c-4.7-4.7-12-6.5-18.3-4.1
								c-2.3,0.9-3.8,3-3.1,5.5C792.9,441.7,795.5,443.6,797.8,442.7L797.8,442.7z"/>
						</g>
					</g>
					<g>
						<g>
							<path fill="#52274C" d="M878.9,449.7c3.3-1.7,7.2-1,9.8,1.5c4.2,4,10.6-2.4,6.4-6.4c-5.7-5.4-13.8-6.4-20.7-2.9
								C869.2,444.5,873.7,452.3,878.9,449.7L878.9,449.7z"/>
						</g>
					</g>
					<path fill="#EB633E" d="M879.5,508.2c-23,10.2-51,7.9-72-5.9c-3.4,8-2.6,17,0,25.3c3.5,11.1,12.5,20.3,23.6,24.1
						c11,3.8,23.8,2.1,33.5-4.4C877,539,882.2,523,879.5,508.2z"/>
					<path fill="#F89E6A" d="M858.9,487.9c-8.5,0.6-17,1.1-25.5,1.7c2.6,4.7,7.5,7.5,12.8,7.3C851.6,496.6,856.7,492.9,858.9,487.9z
						"/>
				</g>
				<rect x="801.3" y="1007.8" fill="#594A42" width="97.5" height="421.5"/>
				<rect x="406" y="964.7" fill="#764D26" width="888" height="46.7"/>
				<g>
					<path fill="#52274C" d="M1286.7,512.7c1.7,17.9,5.4,34,14.6,49.4c-0.8-10.2-0.9-20.5-0.2-30.7c0.2-3.7,0.6-7.5,2.3-10.9
						s4.9-6.1,8.6-6.3c3.7-0.1,7.1,2.4,9.1,5.6s2.7,6.9,3.4,10.5c2,10.1,4.1,20.4,3.3,30.6c-0.7,10.3-4.6,20.8-12.5,27.4
						c29.2,11.1,61.4,15.7,91.7,8.9c2.8-0.6,5.6-1.4,8.3-2.2c28.2-36.1,45.1-80.3,45-126.1c0-13.8-1.6-28-8.4-40
						c-6.8-12-18.6-23.9-32.3-22.6c-16.5-37.5-60.5-60.8-100.9-53.3c-40.3,7.5-71.8,46.1-71.3,87.1c0.2,11.8,2.8,23.4,7.5,34.2
						C1261.7,489.8,1272.7,503.3,1286.7,512.7z"/>
					<g>
						<path fill="#EB633E" d="M1409.3,615.5c-1.2-6-2-12.1-2.3-18.2c-28.9,6.5-59.6,2.6-87.8-7.4
							C1345.8,607,1377.6,616,1409.3,615.5z"/>
						<path fill="#FFBF83" d="M1409.3,615.5c-31.7,0.5-63.5-8.5-90.1-25.6c-1.3-0.5-2.7-1-4-1.5c7.9-6.6,11.8-17.1,12.5-27.4
							c0.7-10.3-1.3-20.5-3.3-30.6c-0.7-3.6-1.5-7.4-3.4-10.5s-5.3-5.7-9.1-5.6c-3.7,0.1-6.9,2.9-8.6,6.3s-2,7.1-2.3,10.9
							c-0.7,10.2-0.6,20.5,0.2,30.7c-9.2-15.5-12.9-31.5-14.6-49.4c-14-9.4-25-22.9-31.7-38.3c-1,5.2-1.7,10.5-2.3,15.8
							c-2.1,19.3-2.2,38.7-0.5,58.1c2.2,24.4,8.6,50.4,28.8,67.3c12.8,10.6,30.2,16.3,47.8,16.9c5.7,25.3,3.6,52.5-6.7,76.4
							c43.8,1.5,85.7-5.9,124.8-25.5C1427.4,665.2,1414.5,641.4,1409.3,615.5z"/>
					</g>
					<g>
						<path fill="#2E4872" d="M1561.2,1281.8c-3.7-30.5-7.2-50.6-7.2-50.6l-352-22.6c-4.2,23.4-8.7,52.4-13,81.6
							C1310.8,1321.1,1441,1318.2,1561.2,1281.8z"/>
						<path fill="#405C91" d="M1189,1290.2c-10.1,68.9-19,139-19,139h400c1.1-52.7-4-108.5-8.8-147.4
							C1441,1318.2,1310.8,1321.1,1189,1290.2z"/>
					</g>
					<path fill="#FFBF83" d="M970.9,833.3c-0.9-30.3-1.9-60.7-2.8-91c-0.2-4.9-0.4-9.9-2.6-14.2c-2.3-4.3-7.3-7.6-12-6.2
						c-6.9,2-7.8,11.3-7,18.4c0.8,7.1,1.1,16.1-5.3,19.5c-13-11-26.3-22.1-42-28.6c-15.7-6.5-34.5-7.8-49.2,0.7s-23,28.7-14.9,43.7
						c5.5,10.2,16.7,16,27.8,19.3c11.1,3.3,22.8,4.9,33.3,9.7c20.2,9.3,33.8,31.3,33.3,53.5C944.3,854.6,960,844,970.9,833.3z"/>
					<g>
						<path fill="#DB5656" d="M1284,816.5l-43.5,45.3c0,0-32.8,199.8-45.7,282.1c0,0,0,0,0,0c-5.2,30-9.8,60.1-14,90.2
							c16,4.9,32.2,9.2,48.6,13c2.5-81,10.5-282.8,30.6-375.8L1284,816.5z"/>
						<path fill="#F07F7F" d="M1529.6,734.6c-8.4-30.2-27.1-68.9-61.6-71.2c-25.5-1.7-78,0.6-78,0.6c-2.2,0.3-4.3,0.7-6.5,1
							c-98.1,15.8-167.2,30.5-194.6,112.7c-28,84-121,210.3-121,210.3s-81-133.8-91.5-178.8c-40.5,6-66,42-66,42
							c20.1,65.3,84.6,164.3,125,222.5c17.6,25.3,54.7,26.3,73.6,1.9c65.4-84.4,118.8-196.3,131.4-213.9l43.5-45.3l-24,54.9
							c-20.1,93-28.1,294.8-30.6,375.8c111.1,25.8,229.2,27.4,341.1,4.1C1589.7,1079.9,1575.9,901.6,1529.6,734.6z"/>
					</g>
				</g>
				<g>
					<g>
						<path fill="#0B3040" d="M122.7,1140.1l-46.7-5.9c-3.4,14-4.8,29.1-5.1,45.2c22.5,9.4,45.6,17.4,69.2,23.9L122.7,1140.1z"/>
						<path fill="#004360" d="M70.9,1179.4c-1,69.2,20.5,156.5,5.1,249.8h126.5l-62.4-225.9C116.6,1196.8,93.5,1188.8,70.9,1179.4z"
							/>
						<path fill="#103F58" d="M366.3,1220.6l-5.3-50.4l-238.3-30.1l17.4,63.2C213.4,1223.6,290.7,1229.6,366.3,1220.6z"/>
						<path fill="#004E78" d="M140.1,1203.3l62.4,225.9H388l-21.7-208.6C290.7,1229.6,213.4,1223.6,140.1,1203.3z"/>
					</g>
					<g>
						<path fill="#EB633E" d="M298.2,615.1c1.2-18.1,7.2-35.6,18.5-49.9c-10.2-20.7-19.3-43.8-29.5-64.5
							c-12.4,17.5-24.8,34.9-37.1,52.4C257.2,578.9,274.8,601.9,298.2,615.1z"/>
						<path fill="#FFBF83" d="M250.1,553.1c-13.2,18.6-26.4,37.3-39.6,55.9c29.9,19,61,39.3,94.3,51.2c-5.3-14.4-7.6-29.9-6.6-45.1
							C274.8,601.9,257.2,578.9,250.1,553.1z"/>
					</g>
					<g>
						<path fill="#227D41" d="M360.3,1039.8c-9.7-50.2-20.3-94-20.3-141.3c0-34.3,0.2-68-1.7-100.5l-129-31.7L360.3,1039.8z"/>
						<path fill="#299252" d="M209.3,766.3l129,31.7c-3-50.2-11.2-97.2-33.5-137.9c-36.8-67-94.3-51.2-94.3-51.2
							C135.1,633.7,68,957.2,62,1149.2c88,48,314.1,38,314.1,38c0-57.8-7.6-104.9-15.8-147.4L209.3,766.3z"/>
					</g>
					<path fill="#FFBF83" d="M462.3,465.9c-0.8,28.6-1.6,57.3-2.4,85.9c-0.2,5.7-0.6,12-4.8,15.7c-3.9,3.5-10,3.5-14.8,1.5
						c-4.8-2.1-8.7-5.8-12.4-9.5c0.1,22.7-13.9,43.5-32.4,56.6s-43.5,16.4-64.9,8.8c-28.8-10.4-48.3-39.1-53.9-69.3
						c-5.5-30.1,1-61.3,11.7-90c9.3-24.8,21.9-48.8,40.3-67.9c18.4-19.1,43-33,69.4-35s54.4,9.1,69.3,31
						C482.3,415.7,480.7,446.9,462.3,465.9z"/>
					<path fill="#52274C" d="M384.1,413.4c15.7-6.2,31.4-12.5,47-18.7c18.3,11,41.8,19.9,62.9,17c21.1-2.9,40.6-24.5,33.6-44.6
						c-5.1-14.5-20.6-21.9-34.7-27.9c-37.3-15.8-74.6-31.6-111.8-47.4c-15.9-6.7-33.3-13.6-50-9.3c-20.7,5.4-34.2,30-27.6,50.4
						c-44.7-1.5-87.7,34.3-94.3,78.5c-3.3,21.8,1.3,44,1.9,66c0.5,22.1-4.3,46.3-21.5,60.1c37,16.5,84.2,5.8,110.4-25.1
						c-6.6-10.8-11.2-28.7-10.3-41.3c0.8-12.6,11.7-25.3,24.2-23.4c6.6,1,12.1,5.8,15.4,11.5c3.3,5.8,4.6,12.4,5.4,19
						c2.6,22.6-1.1,45.9-10.5,66.6c5.2,0,12,0.1,17.2,0.1C338.7,499.4,356.6,450.2,384.1,413.4z"/>
					<g>
						<path fill="#FFBF83" d="M778,830.5c0,0-19.9-35.8-68.6-31.8c0,0,28-27.8,22.6-40.5c0,0-62.7,27-86.7,59l0,0l-213.3,62
							l-40.1-50.4l-45.5,72.8l59.6,63.6L666,858l0,0l0,0c26.7-11,62.7,8.5,81.3,25.2C747.3,883.2,784.7,859.9,778,830.5z"/>
						<polygon fill="#EB633E" points="278.3,686.2 228,775.2 346.4,901.6 391.9,828.8 						"/>
					</g>
					<path fill="#41AC6F" d="M300.2,693L388,803.2l-71.3,94.5L209.3,766.3c-17.6-21.6-17.6-52.6,0.2-74.1l0,0
						C233.1,663.6,277.1,664,300.2,693z"/>
					<path fill="#EB633E" d="M420,570.1c-13.1,1.2-26.5-1.7-38-8.3c-3.6,7.5-7.8,16.7-7.8,24.9c0.1,8.3,5.2,17.2,13.3,18.6
						c5.7,1,11.5-1.8,15.6-5.8c4.1-4.1,6.7-9.3,9.3-14.5C415.1,579.8,417.3,575.4,420,570.1z"/>
					<circle fill="#52274C" cx="428.3" cy="485.2" r="8.3"/>
					<g>
						<path fill="#52274C" d="M403.8,449.2c14,2,28,4,42,6c5.7,0.8,8.1-7.9,2.4-8.7c-14-2-28-4-42-6
							C400.6,439.7,398.1,448.4,403.8,449.2L403.8,449.2z"/>
					</g>
				</g>
			</g>
		</g>
		<g>
			<path fill="#361633" d="M676.6,244c0.9,3,0.6,6.3-0.7,9.9c-1.5,3.2-3,6.3-4.4,9.4c0.6,0.6,1.4,0.9,2.4,0.8c1.1-0.1,2.1-0.2,3-0.3
				c5.5,0.3,9.3,2.2,11.4,5.8c1.6,2.8,2.1,5.9,1.6,9.3c-0.4,2.6-1.6,5.6-3.4,9c-1.5,2.7-3.1,5.4-4.6,8.1c-0.4,0.7-0.9,1.2-1.6,1.6
				c-1.6,0.9-3.1,0.9-4.5,0c-2.3-4.1-4.5-8.2-6.7-12.3c-2.7-4.9-4.7-9.1-6.1-12.5c-1.4-0.1-2.4-0.6-2.9-1.4
				c-0.3-0.4-0.3-0.9-0.1-1.5c0.2-0.6,0.4-1.3,0.8-2.1c-3.7-7.7-7.5-14.6-11.4-20.6c-2.5,0.9-4.6,0.7-6.3-0.5
				c-0.2-0.2-0.2-0.5-0.2-1c0-0.5-0.1-0.9-0.2-1.1c0.6-1.5,1.6-2.6,3-3.4c1-0.6,3.4-1.5,7.2-2.9c2-0.7,4.2-1.2,6.7-1.3
				c6.8-0.3,11.4,0.6,13.8,2.6C675.1,241.1,676.2,242.6,676.6,244z M681.9,274.1c-0.2-0.6-0.5-1.1-0.7-1.6c-0.8-1.5-2-2.5-3.6-3.1
				c-3.2,0.2-5.1,0.5-5.8,0.9c-0.4,0.2-0.7,0.5-1,0.8c0.3,0.5,0.7,1,1,1.6c0.6,1,1.4,2.7,2.3,4.9c1,2.3,1.7,3.9,2.3,5
				c0.9,1.6,1.9,2.8,3,3.9c0.2-1,0.7-2.3,1.5-3.7c0.8-1.5,1.3-2.6,1.4-3.5C682.7,277.8,682.5,276,681.9,274.1z M667.7,244.3
				c-1.3-1.7-3.5-2.2-6.8-1.6c-0.5,0.1-1.3,0.1-2.4,0.1c-0.8-0.1-1.4,0-1.8,0.3c-0.2,0.1-0.4,0.3-0.6,0.5c0.4,0.9,0.9,1.7,1.4,2.7
				c0.7,1.3,2.1,3.3,4,6.2c1.7,2.7,3,4.8,3.9,6.4c0.3-0.2,0.7-0.7,1.1-1.6c0.4-0.9,0.6-1.4,0.7-1.5c1.1-1.5,1.7-3.4,1.9-5.6
				C669.3,247.8,668.8,245.9,667.7,244.3z"/>
			<path fill="#361633" d="M713.9,253.4c-0.1,0.1-1.7,3.8-5,11c-1.9,4.2-3.8,7.6-5.7,10.2c-0.2,0.3-0.5,0.6-0.7,0.7
				c-0.7,0.4-1.6,0.3-2.6-0.2c-1.5-0.7-2.4-1-2.4-1c-2.6-4.2-5.7-10.3-9.5-18.3c-3.9-8.5-7-14.6-9-18.2c-1.4-2.5-2.9-4.8-4.3-6.8
				c0.3-1,0.9-1.8,1.9-2.3c1.8-1.1,3.3-1,4.4,0.2c2.4,3.9,5.7,10,9.8,18.2c4.1,8.2,7.3,14.3,9.7,18.2c1-1.4,2.2-3.4,3.6-6.1
				c1.4-3,2.5-5.1,3.3-6.3c0.2-0.1,0.6-0.4,1.2-0.9c0.6-0.4,1-0.8,1.3-0.9c1-0.6,1.9-0.6,2.8,0C713.6,251.5,714.1,252.4,713.9,253.4
				z"/>
			<path fill="#361633" d="M745.1,242c0.7,0.6,1.3,1.2,1.6,1.8c0.6,1,0.6,2.1,0.2,3.3c-0.4,1.2-0.8,1.9-1.1,2
				c-2.6,0.9-5.2-0.1-7.8-3.2c-2.8-3.3-5.4-5.9-7.7-7.9c-1.6,1.1-3.1,2.2-4.7,3.3c-1.8,1.3-2.9,2.8-3.4,4.3c0.3,1.8,1.2,4.9,2.5,9.2
				c1.2,4,2,7.2,2.3,9.5c0.1,1.1-0.6,1.8-2.1,2.2c-1.9,0.4-3.2,0.2-3.8-0.7c-1.2-1.8-2.1-4.5-2.7-8.3c-0.6-4.4-1.2-7.4-2-9
				c-0.2-0.5-0.8-0.8-1.8-0.9c-1-0.1-1.6-0.4-1.7-0.6c-0.1-0.2-0.2-0.6-0.1-1c0.1-0.4,0.4-0.9,1.2-1.5c0.7-0.6,1-1.1,0.9-1.5
				c-0.5-2.9-1.7-8.2-3.7-15.9c-1.7-6.6-2.8-11.9-3.3-15.6c-0.1-0.8,0.3-1.5,1.2-2.1c0.7-0.4,1.4-0.5,2.2-0.4c2,0.4,3.9,1.6,5.6,3.7
				c1.4,1.8,2.9,3.7,4.2,5.5C730.2,228.1,738.2,236.1,745.1,242z M726.5,234.3c-1.2-1.7-2.7-3.5-4.4-5.5c-1.6-1.7-3.2-3.3-4.7-5
				c0.9,4.9,1.9,9.6,3.2,14.3C721.2,237.4,723.2,236.2,726.5,234.3z"/>
		</g>
		<g>
			<path fill="#361633" d="M1088,414.4c0.6,3.1,0,6.3-1.7,9.8c-1.8,3-3.6,6-5.4,8.9c0.5,0.7,1.3,1,2.3,1c1.1,0,2.1,0,3.1,0
				c5.5,0.9,9.1,3.2,10.7,7c1.3,2.9,1.5,6,0.6,9.4c-0.7,2.6-2.1,5.5-4.3,8.6c-1.8,2.5-3.6,5.1-5.4,7.6c-0.5,0.6-1,1.1-1.8,1.4
				c-1.7,0.8-3.2,0.6-4.5-0.5c-1.8-4.3-3.6-8.7-5.4-13c-2.2-5.2-3.8-9.5-4.8-13c-1.4-0.2-2.3-0.8-2.7-1.7c-0.2-0.5-0.2-1,0-1.5
				c0.2-0.6,0.5-1.2,1-2c-2.9-8-5.9-15.3-9.2-21.7c-2.6,0.6-4.7,0.2-6.2-1.1c-0.1-0.2-0.2-0.5-0.1-1c0-0.5,0-0.9-0.1-1.2
				c0.8-1.4,1.9-2.4,3.3-3c1-0.5,3.5-1.2,7.5-2.1c2-0.5,4.3-0.7,6.8-0.6c6.8,0.4,11.3,1.7,13.5,4
				C1086.9,411.4,1087.8,413,1088,414.4z M1090.2,444.9c-0.1-0.6-0.3-1.2-0.6-1.7c-0.7-1.5-1.8-2.7-3.3-3.4c-3.2-0.1-5.1,0-5.8,0.3
				c-0.4,0.2-0.8,0.4-1,0.7c0.3,0.5,0.6,1,0.8,1.7c0.5,1.1,1.1,2.8,1.8,5.1c0.7,2.4,1.3,4.1,1.8,5.2c0.7,1.6,1.6,3,2.6,4.2
				c0.3-1,0.9-2.2,1.9-3.5s1.5-2.5,1.8-3.3C1090.6,448.7,1090.6,446.9,1090.2,444.9z M1079.1,413.8c-1.1-1.8-3.3-2.6-6.6-2.3
				c-0.5,0-1.3,0-2.4-0.1c-0.8-0.1-1.4-0.1-1.8,0.1c-0.2,0.1-0.4,0.2-0.6,0.5c0.3,0.9,0.7,1.8,1.2,2.8c0.6,1.3,1.7,3.5,3.3,6.6
				c1.5,2.8,2.5,5.1,3.2,6.8c0.4-0.2,0.8-0.7,1.3-1.5c0.5-0.9,0.8-1.3,0.8-1.4c1.2-1.4,2-3.2,2.5-5.4
				C1080.4,417.5,1080.1,415.5,1079.1,413.8z"/>
			<path fill="#361633" d="M1124.2,427.7c-0.1,0.1-2.1,3.6-6.1,10.4c-2.3,4-4.6,7.2-6.7,9.5c-0.2,0.3-0.5,0.5-0.8,0.6
				c-0.7,0.3-1.6,0.2-2.6-0.5c-1.5-0.8-2.2-1.2-2.3-1.3c-2.1-4.5-4.6-10.9-7.5-19.2c-3-8.9-5.4-15.2-7.1-19c-1.2-2.6-2.4-5-3.6-7.2
				c0.4-1,1.1-1.7,2.1-2.1c1.9-0.9,3.4-0.7,4.3,0.6c2,4.1,4.6,10.5,7.9,19.1c3.2,8.6,5.8,15,7.8,19.1c1.2-1.3,2.5-3.2,4.2-5.7
				c1.7-2.9,3-4.8,3.9-5.9c0.3-0.1,0.7-0.4,1.3-0.8c0.6-0.4,1-0.6,1.4-0.8c1-0.5,1.9-0.4,2.8,0.2
				C1124.1,425.7,1124.5,426.6,1124.2,427.7z"/>
			<path fill="#361633" d="M1156.4,419.6c0.7,0.7,1.1,1.3,1.4,1.9c0.5,1,0.4,2.1-0.1,3.3c-0.5,1.2-1,1.8-1.3,1.9
				c-2.7,0.7-5.2-0.7-7.5-3.9c-2.4-3.6-4.7-6.4-6.9-8.6c-1.7,0.9-3.3,1.9-5,2.8c-1.9,1.1-3.2,2.5-3.9,3.9c0.1,1.8,0.7,5,1.5,9.4
				c0.8,4.1,1.2,7.3,1.3,9.6c0,1.1-0.8,1.7-2.3,1.9c-1.9,0.2-3.2-0.2-3.7-1.1c-1-1.9-1.6-4.7-1.8-8.6c-0.1-4.4-0.5-7.5-1-9.1
				c-0.2-0.5-0.7-0.8-1.7-1.1c-1-0.2-1.5-0.5-1.7-0.8c-0.1-0.3-0.1-0.6,0-1c0.1-0.4,0.5-0.9,1.3-1.4c0.8-0.6,1.1-1,1.1-1.4
				c-0.2-3-0.9-8.4-2-16.2c-1-6.8-1.6-12.1-1.7-15.9c0-0.9,0.5-1.5,1.4-1.9c0.7-0.3,1.5-0.4,2.2-0.2c2,0.6,3.7,2,5.2,4.3
				c1.2,2,2.5,3.9,3.6,5.9C1143,404.2,1150.1,413,1156.4,419.6z M1138.6,409.9c-1-1.8-2.3-3.8-3.8-5.9c-1.4-1.8-2.8-3.6-4.2-5.5
				c0.4,4.9,0.9,9.8,1.7,14.5C1133,412.5,1135.2,411.4,1138.6,409.9z"/>
		</g>
		<g>
			<path fill="#361633" d="M927,141.1c-1.3,2.8-3.7,5.1-7.1,6.9c-3.2,1.4-6.4,2.8-9.6,4.1c0,0.9,0.4,1.6,1.3,2.2
				c0.9,0.6,1.7,1.2,2.5,1.8c3.9,3.9,5.5,7.9,4.6,11.9c-0.6,3.1-2.3,5.8-5,8c-2.1,1.7-4.9,3.2-8.6,4.5c-2.9,1-5.9,2-8.9,3
				c-0.7,0.2-1.5,0.3-2.3,0.1c-1.8-0.4-2.9-1.4-3.3-3c1.1-4.6,2.1-9.1,3.2-13.7c1.2-5.5,2.5-9.9,3.7-13.4c-1-1-1.4-2-1.2-3
				c0.1-0.5,0.4-0.9,0.9-1.2s1.2-0.7,2-1c2.4-8.2,4.1-15.8,5.2-22.9c-2.5-1-3.9-2.5-4.4-4.5c0-0.2,0.2-0.5,0.5-0.9
				c0.3-0.4,0.5-0.7,0.6-1c1.5-0.7,2.9-0.8,4.5-0.5c1.1,0.2,3.5,1.1,7.3,2.6c2,0.7,3.9,1.9,5.9,3.5c5.3,4.3,8.1,8,8.6,11.1
				C927.8,138,927.6,139.8,927,141.1z M910.9,167.2c0.2-0.6,0.4-1.1,0.5-1.7c0.3-1.6,0.1-3.2-0.7-4.7c-2.5-1.9-4.2-3-4.9-3.2
				c-0.4-0.1-0.9-0.1-1.3,0c-0.1,0.6-0.2,1.2-0.3,1.8c-0.2,1.2-0.8,2.9-1.6,5.2c-0.8,2.3-1.3,4.1-1.6,5.3c-0.4,1.8-0.5,3.4-0.3,4.9
				c0.8-0.6,2-1.2,3.6-1.8c1.6-0.6,2.7-1.1,3.4-1.7C909.1,170.5,910.1,169,910.9,167.2z M920.1,135.4c0.1-2.1-1.2-4-4-5.7
				c-0.4-0.3-1-0.8-1.8-1.5c-0.6-0.6-1.1-0.9-1.5-1c-0.2,0-0.5,0-0.8,0c-0.2,0.9-0.5,1.9-0.7,2.9c-0.3,1.4-0.7,3.9-1.2,7.3
				c-0.5,3.2-0.9,5.6-1.4,7.4c0.4,0.1,1-0.1,1.9-0.5c0.9-0.4,1.4-0.6,1.5-0.7c1.8-0.4,3.5-1.4,5.2-3
				C919,139.2,919.9,137.4,920.1,135.4z"/>
			<path fill="#361633" d="M948.6,173c-0.1,0-3.8,1.7-11,4.9c-4.2,1.9-7.9,3.2-11,3.8c-0.4,0.1-0.7,0.1-1,0
				c-0.8-0.2-1.4-0.8-1.8-1.9c-0.7-1.5-1.1-2.3-1.1-2.4c0.9-4.9,2.6-11.5,5.1-20c2.7-9,4.5-15.5,5.4-19.6c0.6-2.8,1-5.5,1.3-8
				c0.9-0.6,1.8-0.7,2.9-0.5c2.1,0.4,3.1,1.5,3.1,3.1c-0.8,4.5-2.4,11.2-4.8,20.1c-2.4,8.9-4,15.5-4.8,20.1c1.7-0.3,3.9-1.1,6.7-2.2
				c3.1-1.3,5.3-2.1,6.6-2.5c0.3,0.1,0.8,0.1,1.5,0.1c0.7,0,1.2,0.1,1.6,0.2c1.1,0.2,1.8,0.8,2.1,1.8
				C949.6,171.3,949.4,172.3,948.6,173z"/>
			<path fill="#361633" d="M979.4,185.2c0.1,0.9,0.2,1.7,0,2.4c-0.2,1.1-0.9,2-2,2.6c-1.1,0.6-1.8,0.9-2.1,0.8
				c-2.6-1.1-3.8-3.6-3.8-7.6c0.1-4.3-0.1-8-0.5-11c-1.9-0.2-3.8-0.4-5.7-0.7c-2.2-0.2-4,0.1-5.4,0.9c-1,1.6-2.4,4.4-4.3,8.6
				c-1.8,3.8-3.3,6.7-4.6,8.6c-0.6,0.9-1.6,1-3,0.2c-1.7-1-2.5-2-2.4-3.1c0.3-2.1,1.4-4.8,3.5-8c2.5-3.7,4-6.3,4.5-8
				c0.2-0.5-0.1-1.1-0.7-1.9c-0.6-0.8-0.9-1.3-0.9-1.6c0.1-0.3,0.2-0.5,0.5-0.8c0.3-0.3,0.9-0.4,1.9-0.4c0.9,0,1.5-0.2,1.7-0.5
				c1.6-2.5,4.2-7.3,7.9-14.3c3.2-6.1,5.8-10.7,7.9-13.9c0.5-0.7,1.3-0.9,2.3-0.7c0.8,0.2,1.4,0.5,1.9,1.2c1.3,1.6,1.8,3.8,1.7,6.5
				c-0.1,2.3-0.3,4.6-0.5,6.9C977.6,165,978.2,176.2,979.4,185.2z M970.7,167c0.3-2.1,0.4-4.4,0.3-7c-0.1-2.3-0.2-4.6-0.2-6.9
				c-2.6,4.2-5,8.5-7.1,12.8C964.6,165.9,966.9,166.3,970.7,167z"/>
		</g>
		<g>
			<path fill="#361633" d="M1488.8,271.1c-2.3,2.1-5.3,3.4-9.2,3.8c-3.5,0.1-7,0.2-10.4,0.3c-0.3,0.8-0.2,1.6,0.4,2.5
				c0.6,0.9,1.1,1.7,1.7,2.6c2.2,5.1,2.2,9.4-0.1,12.8c-1.8,2.7-4.3,4.5-7.6,5.6c-2.5,0.8-5.7,1.1-9.6,1c-3.1-0.2-6.2-0.3-9.3-0.5
				c-0.8,0-1.5-0.3-2.1-0.7c-1.5-1-2.2-2.4-2-4c2.7-3.9,5.3-7.7,8-11.5c3.2-4.6,6-8.3,8.4-11.1c-0.6-1.3-0.5-2.4,0-3.2
				c0.3-0.4,0.7-0.7,1.3-0.8c0.6-0.1,1.3-0.2,2.2-0.2c5.2-6.7,9.7-13.2,13.3-19.4c-1.9-1.9-2.7-3.8-2.4-5.8c0.1-0.2,0.3-0.4,0.8-0.7
				c0.5-0.2,0.8-0.5,0.9-0.7c1.6-0.1,3.1,0.3,4.4,1.2c0.9,0.6,2.9,2.3,5.9,5.2c1.5,1.4,2.9,3.2,4.2,5.5c3.3,5.9,4.6,10.4,3.9,13.5
				C1490.7,268.5,1489.9,270.1,1488.8,271.1z M1464.3,289.4c0.4-0.5,0.8-0.9,1.1-1.4c0.9-1.4,1.3-2.9,1.1-4.6
				c-1.6-2.7-2.8-4.3-3.4-4.8c-0.4-0.2-0.8-0.4-1.2-0.5c-0.3,0.5-0.6,1-0.9,1.6c-0.6,1-1.8,2.4-3.4,4.3c-1.6,1.9-2.7,3.3-3.4,4.3
				c-1,1.5-1.7,3-2.1,4.4c1-0.3,2.3-0.4,4-0.3s2.9,0,3.8-0.3C1461.4,291.8,1462.9,290.8,1464.3,289.4z M1484.5,263.3
				c0.9-1.9,0.4-4.1-1.6-6.8c-0.3-0.4-0.7-1.1-1.2-2.1c-0.3-0.7-0.7-1.2-1-1.5c-0.2-0.1-0.4-0.2-0.7-0.3c-0.6,0.8-1.1,1.6-1.7,2.5
				c-0.8,1.2-2.1,3.3-3.8,6.4c-1.6,2.8-2.9,4.9-4,6.3c0.3,0.2,1,0.3,2,0.2c1-0.1,1.5-0.1,1.7-0.1c1.8,0.3,3.8,0,5.9-0.9
				C1482.2,266.3,1483.7,265.1,1484.5,263.3z"/>
			<path fill="#361633" d="M1497.2,308.7c-0.1,0-4.1,0.1-12.1,0.4c-4.6,0.2-8.5,0-11.6-0.5c-0.4,0-0.7-0.2-1-0.3
				c-0.7-0.4-1-1.3-1-2.5c-0.1-1.7-0.2-2.6-0.2-2.6c2.6-4.2,6.7-9.8,12.1-16.7c5.9-7.4,9.9-12.8,12.2-16.2c1.6-2.4,3-4.7,4.2-6.9
				c1-0.2,2,0,2.9,0.6c1.8,1.2,2.4,2.5,1.8,4c-2.4,3.9-6.3,9.6-11.8,16.9c-5.5,7.3-9.5,13-11.9,16.9c1.7,0.3,4,0.4,7.1,0.4
				c3.3-0.1,5.7,0,7.1,0.1c0.2,0.2,0.7,0.4,1.3,0.7c0.6,0.3,1.1,0.5,1.4,0.7c0.9,0.6,1.4,1.4,1.3,2.5
				C1498.8,307.5,1498.2,308.4,1497.2,308.7z"/>
			<path fill="#361633" d="M1521.3,331.5c-0.2,0.9-0.5,1.7-0.9,2.2c-0.6,0.9-1.6,1.5-2.8,1.7c-1.3,0.2-2,0.2-2.3-0.1
				c-2-1.9-2.3-4.7-0.7-8.4c1.7-4,2.9-7.5,3.5-10.4c-1.7-0.9-3.4-1.8-5-2.7c-2-1-3.8-1.3-5.4-1.1c-1.5,1.1-3.8,3.2-7.1,6.4
				c-3,2.9-5.5,5-7.4,6.3c-0.9,0.6-1.9,0.3-2.8-0.9c-1.2-1.5-1.6-2.8-1.1-3.7c1-1.9,3.1-3.9,6.3-6.1c3.7-2.5,6-4.4,7.1-5.8
				c0.3-0.4,0.3-1.1,0-2c-0.3-0.9-0.4-1.6-0.2-1.8c0.2-0.2,0.4-0.4,0.8-0.5c0.4-0.1,1,0,1.9,0.3c0.9,0.3,1.5,0.4,1.8,0.1
				c2.4-1.8,6.6-5.3,12.6-10.4c5.2-4.5,9.3-7.8,12.5-10c0.7-0.5,1.5-0.4,2.4,0.2c0.7,0.4,1.1,1,1.3,1.8c0.6,2,0.3,4.2-0.8,6.7
				c-1,2.1-2,4.2-3,6.3C1527.1,311.9,1523.5,322.6,1521.3,331.5z M1519.9,311.3c1-1.8,2-4,2.9-6.4c0.8-2.2,1.5-4.3,2.4-6.5
				c-4,3-7.7,6-11.3,9.2C1514.7,308,1516.7,309.2,1519.9,311.3z"/>
		</g>
		<g>
			<path fill="#361633" d="M1284.6,277c-0.4,3.1-1.9,6-4.6,8.8c-2.6,2.3-5.2,4.6-7.9,6.9c0.3,0.8,0.9,1.4,1.9,1.7
				c1,0.3,2,0.6,2.9,0.9c4.9,2.5,7.6,5.8,8.1,9.9c0.3,3.2-0.4,6.2-2.3,9.1c-1.4,2.2-3.7,4.5-6.8,6.9c-2.5,1.8-5,3.7-7.5,5.5
				c-0.6,0.5-1.3,0.7-2.1,0.8c-1.8,0.2-3.2-0.4-4.1-1.8c-0.4-4.7-0.8-9.3-1.2-14c-0.5-5.6-0.7-10.2-0.6-13.9c-1.3-0.7-1.9-1.5-2-2.5
				c-0.1-0.5,0.1-1,0.5-1.4c0.4-0.5,0.9-1,1.6-1.6c-0.3-8.5-1-16.3-2.1-23.4c-2.7-0.2-4.5-1.2-5.6-2.9c-0.1-0.2,0-0.6,0.2-1
				c0.2-0.5,0.3-0.8,0.3-1.1c1.2-1.1,2.5-1.7,4.1-1.9c1.1-0.1,3.7,0,7.8,0.3c2.1,0.1,4.3,0.6,6.7,1.6c6.4,2.5,10.2,5.1,11.6,7.9
				C1284.4,273.8,1284.8,275.5,1284.6,277z M1277.4,306.7c0-0.6,0-1.2,0-1.8c-0.2-1.7-0.9-3.1-2.1-4.3c-3-1.1-4.9-1.6-5.7-1.5
				c-0.4,0-0.9,0.2-1.2,0.4c0.1,0.6,0.2,1.2,0.3,1.8c0.1,1.2,0.2,3,0.1,5.4c0,2.5,0,4.3,0.1,5.5c0.2,1.8,0.6,3.4,1.2,4.8
				c0.6-0.9,1.5-1.8,2.9-2.8c1.3-1,2.2-1.9,2.7-2.6C1276.6,310.4,1277.2,308.8,1277.4,306.7z M1276.3,273.7c-0.5-2-2.3-3.4-5.5-4.2
				c-0.5-0.1-1.2-0.4-2.2-0.9c-0.7-0.4-1.3-0.5-1.7-0.5c-0.2,0-0.5,0.1-0.7,0.2c0,1,0.1,2,0.2,3c0.2,1.4,0.5,3.9,1.1,7.3
				c0.5,3.2,0.8,5.6,1,7.4c0.4,0,0.9-0.4,1.7-1.1c0.7-0.7,1.1-1,1.2-1.1c1.6-1,2.9-2.4,4-4.4
				C1276.4,277.6,1276.8,275.6,1276.3,273.7z"/>
			<path fill="#361633" d="M1315,300.7c-0.1,0.1-3.1,2.7-9,8c-3.4,3.1-6.5,5.4-9.3,7c-0.3,0.2-0.6,0.3-1,0.4
				c-0.8,0.1-1.6-0.3-2.3-1.3c-1.1-1.2-1.8-1.9-1.8-1.9c-0.6-4.9-1.1-11.8-1.3-20.6c-0.2-9.4-0.5-16.2-0.9-20.3
				c-0.3-2.8-0.7-5.5-1.2-8c0.6-0.8,1.5-1.3,2.6-1.4c2.1-0.2,3.4,0.4,3.9,1.9c0.7,4.5,1.2,11.4,1.6,20.6c0.4,9.2,1,16,1.6,20.6
				c1.5-0.8,3.4-2.2,5.7-4.2c2.5-2.2,4.4-3.7,5.5-4.4c0.3,0,0.8-0.1,1.4-0.3c0.7-0.2,1.2-0.3,1.5-0.3c1.1-0.1,2,0.2,2.6,1.1
				C1315.5,298.8,1315.6,299.8,1315,300.7z"/>
			<path fill="#361633" d="M1348.1,302.8c0.4,0.9,0.7,1.6,0.8,2.3c0.1,1.1-0.2,2.1-1.1,3.1c-0.9,0.9-1.5,1.4-1.8,1.4
				c-2.8-0.2-4.7-2.2-5.9-6c-1.2-4.1-2.5-7.6-3.9-10.3c-1.9,0.4-3.8,0.7-5.6,1.1c-2.1,0.5-3.8,1.4-4.9,2.6c-0.4,1.8-0.9,4.9-1.4,9.4
				c-0.5,4.2-1.1,7.4-1.7,9.6c-0.3,1.1-1.3,1.4-2.7,1.1c-1.9-0.4-3-1.1-3.2-2.2c-0.4-2.1-0.1-5,0.9-8.7c1.2-4.2,1.8-7.2,1.8-9
				c0-0.5-0.4-1-1.3-1.6c-0.8-0.5-1.3-1-1.3-1.3c0-0.3,0.1-0.6,0.3-0.9c0.2-0.3,0.8-0.6,1.7-0.9c0.9-0.3,1.4-0.6,1.4-1
				c0.7-2.9,1.7-8.2,3.1-16c1.1-6.8,2.2-12,3.3-15.7c0.2-0.8,0.9-1.3,2-1.4c0.8-0.1,1.5,0.1,2.2,0.5c1.7,1.2,2.9,3.1,3.7,5.7
				c0.6,2.2,1.1,4.5,1.7,6.7C1340.1,284.1,1344.2,294.6,1348.1,302.8z M1334.2,288.2c-0.4-2-1-4.3-1.8-6.8c-0.8-2.2-1.6-4.3-2.3-6.5
				c-1.2,4.8-2.1,9.6-2.8,14.3C1328.1,289,1330.4,288.6,1334.2,288.2z"/>
		</g>
		<g>
			<path fill="#361633" d="M1212.9,144.1c-0.2,3.1-1.6,6.1-4.2,9c-2.5,2.4-5,4.9-7.5,7.3c0.3,0.8,1,1.3,2,1.6c1,0.3,2,0.5,3,0.8
				c5.1,2.2,7.9,5.4,8.6,9.5c0.5,3.2-0.1,6.2-1.8,9.2c-1.3,2.3-3.5,4.7-6.4,7.2c-2.4,2-4.8,4-7.2,5.9c-0.6,0.5-1.3,0.8-2.1,0.9
				c-1.8,0.3-3.2-0.2-4.2-1.6c-0.6-4.7-1.3-9.3-1.9-13.9c-0.8-5.5-1.2-10.2-1.3-13.8c-1.3-0.6-2-1.4-2.2-2.4c-0.1-0.5,0.1-1,0.4-1.5
				c0.3-0.5,0.8-1,1.5-1.6c-0.7-8.5-1.8-16.3-3.3-23.3c-2.7-0.1-4.6-1-5.7-2.6c-0.1-0.2,0-0.6,0.1-1c0.2-0.5,0.2-0.9,0.2-1.1
				c1.1-1.1,2.5-1.8,4-2.1c1.1-0.2,3.7-0.2,7.8-0.2c2.1,0,4.3,0.4,6.7,1.2c6.5,2.1,10.5,4.6,12,7.3
				C1212.5,140.9,1213,142.6,1212.9,144.1z M1207.2,174.1c0-0.6,0-1.2-0.1-1.8c-0.3-1.7-1-3-2.3-4.1c-3-0.9-5-1.3-5.7-1.2
				c-0.4,0.1-0.8,0.2-1.2,0.5c0.1,0.5,0.3,1.1,0.4,1.8c0.2,1.2,0.3,3,0.4,5.4c0.1,2.5,0.2,4.3,0.4,5.5c0.3,1.8,0.8,3.3,1.4,4.7
				c0.5-0.9,1.4-1.9,2.7-3c1.3-1.1,2.1-2,2.6-2.8C1206.6,177.9,1207,176.2,1207.2,174.1z M1204.4,141.2c-0.6-2-2.5-3.3-5.7-3.9
				c-0.5-0.1-1.2-0.3-2.2-0.7c-0.7-0.3-1.3-0.5-1.8-0.4c-0.2,0-0.5,0.1-0.7,0.3c0.1,0.9,0.2,1.9,0.4,3c0.2,1.4,0.7,3.9,1.5,7.2
				c0.7,3.1,1.1,5.6,1.4,7.4c0.4-0.1,0.9-0.4,1.6-1.2c0.7-0.7,1.1-1.1,1.2-1.2c1.5-1,2.8-2.6,3.8-4.6
				C1204.7,145.1,1204.9,143.1,1204.4,141.2z"/>
			<path fill="#361633" d="M1244.4,166.1c-0.1,0.1-3,2.9-8.6,8.5c-3.3,3.3-6.2,5.8-8.9,7.5c-0.3,0.2-0.6,0.4-1,0.4
				c-0.8,0.1-1.6-0.3-2.4-1.1c-1.2-1.2-1.8-1.8-1.9-1.8c-0.9-4.9-1.7-11.7-2.4-20.5c-0.7-9.4-1.3-16.1-2-20.2
				c-0.5-2.8-1-5.5-1.6-7.9c0.6-0.8,1.5-1.3,2.6-1.5c2.1-0.3,3.4,0.2,4,1.7c0.9,4.5,1.8,11.3,2.7,20.5c0.9,9.1,1.8,15.9,2.6,20.5
				c1.4-0.9,3.3-2.4,5.5-4.5c2.4-2.3,4.2-3.9,5.3-4.7c0.3,0,0.8-0.2,1.4-0.4c0.7-0.2,1.2-0.4,1.5-0.4c1.1-0.2,2,0.1,2.6,0.9
				C1244.8,164.2,1245,165.2,1244.4,166.1z"/>
			<path fill="#361633" d="M1277.6,166.5c0.5,0.8,0.8,1.6,0.9,2.2c0.2,1.1-0.1,2.1-0.9,3.1c-0.8,1-1.4,1.5-1.7,1.5
				c-2.8-0.1-4.9-2-6.2-5.7c-1.5-4.1-2.9-7.4-4.4-10.1c-1.9,0.5-3.7,0.9-5.6,1.4c-2.1,0.6-3.7,1.6-4.7,2.8c-0.3,1.8-0.6,5-0.9,9.5
				c-0.3,4.2-0.7,7.4-1.2,9.6c-0.3,1.1-1.2,1.5-2.7,1.3c-1.9-0.3-3-1-3.3-2c-0.5-2.1-0.4-5,0.5-8.8c1-4.3,1.5-7.3,1.3-9.1
				c0-0.5-0.5-1-1.3-1.5c-0.9-0.5-1.3-0.9-1.4-1.2c0-0.3,0-0.6,0.2-0.9c0.2-0.3,0.7-0.7,1.6-1c0.9-0.3,1.3-0.7,1.4-1.1
				c0.5-2.9,1.3-8.3,2.2-16.2c0.8-6.8,1.6-12.1,2.5-15.8c0.2-0.8,0.8-1.3,1.9-1.5c0.8-0.1,1.5,0,2.2,0.4c1.8,1.1,3.1,2.9,4,5.5
				c0.7,2.2,1.4,4.4,2,6.7C1268.6,148.3,1273.2,158.6,1277.6,166.5z M1262.9,152.7c-0.5-2-1.2-4.3-2.2-6.7c-0.9-2.1-1.8-4.2-2.7-6.4
				c-0.9,4.9-1.6,9.7-2.1,14.5C1256.8,153.7,1259.2,153.3,1262.9,152.7z"/>
		</g>
		<g>
			<path fill="#361633" d="M1101.2,234.6c-2.6,1.7-5.8,2.5-9.7,2.2c-3.5-0.5-6.9-1-10.3-1.5c-0.5,0.7-0.5,1.6,0,2.6
				c0.4,1,0.8,1.9,1.2,2.8c1.3,5.4,0.6,9.6-2.3,12.6c-2.2,2.3-5,3.7-8.4,4.2c-2.6,0.4-5.9,0.2-9.6-0.6c-3-0.7-6.1-1.4-9.1-2.1
				c-0.8-0.2-1.4-0.5-2-1.1c-1.3-1.3-1.8-2.7-1.3-4.3c3.3-3.4,6.6-6.7,9.8-10c3.9-4,7.3-7.2,10.1-9.5c-0.3-1.4-0.1-2.4,0.5-3.2
				c0.3-0.4,0.8-0.6,1.4-0.6s1.3,0,2.2,0.2c6.3-5.8,11.8-11.4,16.4-16.9c-1.6-2.2-2-4.2-1.4-6.1c0.1-0.2,0.4-0.4,0.9-0.5
				c0.5-0.2,0.8-0.3,1-0.5c1.6,0.2,3,0.8,4.1,1.9c0.8,0.8,2.5,2.8,4.9,6.1c1.3,1.7,2.3,3.7,3.2,6.1c2.3,6.4,2.8,11.1,1.5,14
				C1103.5,232.3,1102.4,233.7,1101.2,234.6z M1073.9,248.4c0.5-0.4,0.9-0.8,1.3-1.2c1.1-1.2,1.8-2.7,1.9-4.3c-1.1-3-2-4.7-2.6-5.3
				c-0.3-0.3-0.7-0.5-1.1-0.7c-0.3,0.4-0.7,0.9-1.2,1.4c-0.8,0.9-2.2,2.1-4,3.6c-1.9,1.6-3.3,2.8-4.1,3.7c-1.2,1.3-2.2,2.6-2.8,4
				c1-0.1,2.4,0,4,0.3c1.6,0.3,2.9,0.5,3.8,0.4C1070.6,250.3,1072.2,249.6,1073.9,248.4z M1098.3,226.1c1.2-1.7,1.1-4-0.4-6.9
				c-0.2-0.4-0.5-1.2-0.8-2.2c-0.2-0.8-0.4-1.3-0.8-1.6c-0.2-0.2-0.4-0.3-0.7-0.4c-0.7,0.7-1.4,1.4-2.1,2.2c-1,1.1-2.6,2.9-4.8,5.6
				c-2.1,2.4-3.7,4.3-5,5.6c0.3,0.3,0.9,0.5,1.9,0.6c1,0.1,1.5,0.2,1.6,0.2c1.8,0.6,3.7,0.6,5.9,0.2
				C1095.4,228.7,1097.1,227.7,1098.3,226.1z"/>
			<path fill="#361633" d="M1103,273c-0.1,0-4.1-0.6-12-1.6c-4.6-0.6-8.4-1.4-11.4-2.5c-0.4-0.1-0.7-0.3-0.9-0.5
				c-0.6-0.5-0.8-1.4-0.6-2.6c0.2-1.7,0.3-2.5,0.3-2.6c3.3-3.7,8.2-8.5,14.8-14.4c7-6.3,11.9-10.9,14.8-13.9c2-2.1,3.7-4.1,5.3-6.1
				c1,0,2,0.3,2.8,1.1c1.6,1.5,1.9,2.9,1.1,4.2c-3,3.5-7.9,8.4-14.5,14.7c-6.7,6.3-11.5,11.2-14.6,14.6c1.6,0.6,3.9,1.1,6.9,1.6
				c3.3,0.5,5.6,0.9,6.9,1.3c0.2,0.2,0.6,0.5,1.2,0.9c0.6,0.4,1,0.7,1.2,0.9c0.8,0.8,1.1,1.6,0.9,2.7
				C1104.8,272.1,1104.1,272.9,1103,273z"/>
			<path fill="#361633" d="M1123,299.5c-0.4,0.9-0.8,1.6-1.2,2.1c-0.8,0.8-1.8,1.2-3.1,1.2c-1.3,0-2-0.2-2.2-0.5
				c-1.7-2.2-1.4-5,0.7-8.4c2.3-3.6,4.1-6.9,5.3-9.7c-1.5-1.2-3-2.4-4.5-3.5c-1.8-1.3-3.5-2-5.1-2c-1.6,0.8-4.3,2.5-8.1,5.1
				c-3.5,2.3-6.3,4-8.4,4.9c-1,0.4-1.9,0-2.7-1.3c-0.9-1.7-1.1-3-0.4-3.8c1.3-1.7,3.7-3.3,7.2-5c4-1.8,6.7-3.3,8-4.5
				c0.4-0.3,0.5-1,0.4-2c-0.2-1-0.1-1.6,0.1-1.8c0.2-0.2,0.5-0.3,0.9-0.4c0.4-0.1,1,0.2,1.8,0.7c0.8,0.5,1.4,0.6,1.7,0.4
				c2.6-1.4,7.4-4.1,14.2-8.1c5.9-3.6,10.5-6.1,14-7.7c0.8-0.3,1.6-0.2,2.3,0.6c0.6,0.5,0.9,1.2,1,2c0.2,2.1-0.4,4.2-1.9,6.5
				c-1.3,1.9-2.7,3.8-4,5.7C1132,281.2,1126.6,291.2,1123,299.5z M1125,279.4c1.3-1.6,2.6-3.6,4-5.8c1.1-2,2.3-4,3.4-6
				c-4.4,2.2-8.6,4.6-12.7,7.2C1120.4,275.3,1122.2,276.8,1125,279.4z"/>
		</g>
		<g>
			<path fill="#361633" d="M595.5,436.2c-1.7,2.6-4.4,4.5-8,5.8c-3.4,0.9-6.7,1.8-10.1,2.7c-0.1,0.8,0.2,1.6,1,2.4
				c0.8,0.7,1.5,1.4,2.2,2.1c3.3,4.4,4.3,8.6,2.8,12.5c-1.1,3-3.1,5.4-6.1,7.2c-2.3,1.4-5.3,2.4-9.1,3.2c-3.1,0.5-6.1,1.1-9.2,1.6
				c-0.8,0.1-1.5,0.1-2.3-0.2c-1.7-0.6-2.7-1.8-2.8-3.5c1.7-4.4,3.4-8.7,5.1-13.1c2-5.2,3.9-9.5,5.6-12.7c-0.8-1.1-1.1-2.2-0.7-3.1
				c0.2-0.5,0.5-0.8,1.1-1.1c0.5-0.2,1.2-0.5,2.1-0.7c3.6-7.8,6.4-15.1,8.5-21.9c-2.3-1.4-3.5-3.1-3.7-5.1c0-0.2,0.2-0.5,0.6-0.8
				c0.4-0.3,0.6-0.6,0.7-0.9c1.5-0.5,3-0.4,4.5,0.1c1.1,0.4,3.3,1.6,6.9,3.7c1.8,1,3.6,2.5,5.3,4.4c4.6,5,6.9,9.1,6.9,12.3
				C596.7,433.2,596.3,434.9,595.5,436.2z M575.8,459.6c0.3-0.5,0.6-1.1,0.8-1.6c0.6-1.6,0.6-3.2,0-4.7c-2.2-2.3-3.7-3.6-4.4-3.8
				c-0.4-0.2-0.8-0.2-1.3-0.2c-0.1,0.5-0.3,1.1-0.6,1.8c-0.4,1.1-1.2,2.7-2.3,4.9c-1.1,2.2-1.9,3.9-2.3,5c-0.6,1.7-1,3.3-1,4.8
				c0.9-0.5,2.2-0.9,3.8-1.2s2.8-0.7,3.6-1.1C573.4,462.6,574.7,461.3,575.8,459.6z M589.5,429.5c0.4-2-0.6-4.1-3.1-6.2
				c-0.4-0.3-0.9-0.9-1.6-1.7c-0.5-0.7-0.9-1.1-1.3-1.2c-0.2-0.1-0.5-0.1-0.8-0.1c-0.4,0.9-0.8,1.8-1.1,2.8
				c-0.5,1.4-1.2,3.7-2.2,7.1c-0.9,3.1-1.7,5.4-2.4,7.1c0.4,0.1,1,0.1,2-0.2c0.9-0.3,1.5-0.4,1.6-0.4c1.8-0.2,3.7-0.9,5.5-2.2
				C587.9,433.1,589,431.5,589.5,429.5z"/>
			<path fill="#361633" d="M612.2,470.9c-0.1,0-4,1.1-11.6,3.2c-4.5,1.2-8.3,2-11.4,2.2c-0.4,0-0.7,0-1-0.1c-0.7-0.3-1.2-1-1.5-2.2
				c-0.5-1.6-0.7-2.5-0.8-2.5c1.6-4.7,4.2-11,8-19c4-8.5,6.7-14.7,8.2-18.6c1-2.7,1.8-5.3,2.5-7.7c0.9-0.4,1.9-0.5,3-0.1
				c2,0.7,2.9,1.9,2.7,3.5c-1.4,4.4-4,10.8-7.6,19.2c-3.7,8.4-6.2,14.8-7.7,19.1c1.7-0.1,4-0.5,7-1.2c3.2-0.8,5.5-1.3,6.9-1.5
				c0.3,0.1,0.7,0.2,1.4,0.3c0.7,0.1,1.2,0.3,1.5,0.4c1.1,0.4,1.7,1.1,1.8,2.1C613.5,469.3,613.1,470.3,612.2,470.9z"/>
			<path fill="#361633" d="M640.9,487.5c0,1-0.1,1.8-0.3,2.4c-0.4,1.1-1.2,1.8-2.4,2.3c-1.2,0.5-1.9,0.6-2.2,0.4
				c-2.4-1.4-3.3-4.1-2.6-8c0.7-4.3,1.1-7.9,1.1-11c-1.8-0.5-3.7-1-5.5-1.5c-2.1-0.5-4-0.4-5.5,0.1c-1.2,1.4-3,4-5.5,7.8
				c-2.3,3.5-4.2,6.1-5.8,7.8c-0.8,0.8-1.8,0.7-3-0.2c-1.5-1.2-2.2-2.3-1.9-3.4c0.6-2.1,2.1-4.5,4.7-7.4c3-3.3,4.9-5.7,5.6-7.2
				c0.2-0.5,0.1-1.1-0.4-2c-0.5-0.8-0.7-1.4-0.6-1.7c0.1-0.3,0.3-0.5,0.7-0.7c0.3-0.2,1-0.2,1.9-0.1c0.9,0.1,1.5,0,1.8-0.3
				c1.9-2.3,5.2-6.6,9.9-13c4-5.6,7.3-9.8,9.9-12.6c0.6-0.6,1.4-0.7,2.4-0.4c0.7,0.3,1.3,0.7,1.7,1.4c1,1.8,1.3,4,0.8,6.7
				c-0.5,2.3-1,4.5-1.5,6.8C642,467.1,641,478.4,640.9,487.5z M634.9,468.2c0.6-2,1-4.3,1.4-6.9c0.2-2.3,0.5-4.6,0.8-6.9
				c-3.2,3.8-6.1,7.6-8.9,11.6C629.1,466.1,631.3,466.9,634.9,468.2z"/>
		</g>
		<g>
			<path fill="#361633" d="M451.6,195.1c-2.3,2.1-5.4,3.3-9.2,3.6c-3.5,0-7,0-10.4,0c-0.3,0.8-0.2,1.6,0.3,2.5
				c0.6,0.9,1.1,1.8,1.6,2.6c2.1,5.1,2,9.4-0.4,12.8c-1.8,2.6-4.4,4.4-7.7,5.4c-2.6,0.7-5.8,1-9.6,0.8c-3.1-0.2-6.2-0.5-9.3-0.7
				c-0.8-0.1-1.5-0.3-2.1-0.8c-1.5-1.1-2.1-2.4-1.9-4.1c2.8-3.8,5.5-7.6,8.3-11.3c3.3-4.5,6.2-8.2,8.6-10.9
				c-0.5-1.3-0.5-2.4,0.1-3.2c0.3-0.4,0.7-0.7,1.3-0.8c0.6-0.1,1.3-0.2,2.2-0.2c5.4-6.6,10-13,13.7-19.1c-1.9-1.9-2.6-3.9-2.3-5.9
				c0.1-0.2,0.4-0.4,0.8-0.7c0.5-0.2,0.8-0.5,0.9-0.7c1.6,0,3,0.4,4.3,1.3c0.9,0.6,2.8,2.4,5.7,5.3c1.5,1.5,2.9,3.3,4,5.5
				c3.2,6,4.4,10.6,3.6,13.6C453.6,192.5,452.7,194.1,451.6,195.1z M426.7,212.8c0.4-0.4,0.8-0.9,1.1-1.4c1-1.4,1.4-2.9,1.2-4.6
				c-1.6-2.8-2.6-4.4-3.3-4.8c-0.4-0.3-0.8-0.4-1.2-0.5c-0.3,0.5-0.6,1-1,1.6c-0.7,1-1.8,2.4-3.5,4.2c-1.6,1.8-2.8,3.2-3.5,4.3
				c-1,1.5-1.8,2.9-2.2,4.4c1-0.3,2.3-0.3,4-0.2c1.7,0.1,2.9,0,3.8-0.2C423.7,215.1,425.2,214.2,426.7,212.8z M447.5,187.2
				c0.9-1.9,0.5-4.1-1.4-6.8c-0.3-0.4-0.6-1.1-1.1-2.1c-0.3-0.8-0.6-1.3-1-1.5c-0.2-0.1-0.4-0.2-0.7-0.3c-0.6,0.8-1.2,1.6-1.8,2.4
				c-0.8,1.2-2.1,3.3-3.9,6.3c-1.7,2.7-3.1,4.8-4.1,6.2c0.3,0.2,1,0.3,2,0.3c1,0,1.5,0,1.7,0c1.8,0.3,3.8,0.1,5.9-0.7
				C445,190.2,446.6,188.9,447.5,187.2z"/>
			<path fill="#361633" d="M459,232.9c-0.1,0-4.1,0-12.1,0.2c-4.6,0.1-8.5-0.2-11.6-0.8c-0.4-0.1-0.7-0.2-1-0.4
				c-0.6-0.4-1-1.3-0.9-2.5c-0.1-1.7-0.1-2.6-0.1-2.6c2.7-4.1,6.9-9.6,12.5-16.4c6-7.2,10.2-12.5,12.6-16c1.6-2.4,3.1-4.6,4.3-6.8
				c1-0.2,2,0,2.9,0.7c1.7,1.2,2.3,2.6,1.7,4c-2.5,3.9-6.6,9.4-12.2,16.6c-5.7,7.2-9.8,12.7-12.3,16.6c1.7,0.3,4,0.5,7,0.6
				c3.3,0,5.7,0.1,7.1,0.3c0.2,0.2,0.7,0.4,1.3,0.7c0.6,0.3,1.1,0.6,1.4,0.7c0.9,0.6,1.3,1.5,1.2,2.5
				C460.7,231.7,460.1,232.6,459,232.9z"/>
			<path fill="#361633" d="M482.7,256.2c-0.2,0.9-0.5,1.7-0.9,2.2c-0.6,0.9-1.6,1.5-2.8,1.6c-1.3,0.1-2,0.1-2.3-0.1
				c-2-2-2.1-4.8-0.5-8.4c1.8-3.9,3-7.4,3.8-10.3c-1.7-0.9-3.3-1.9-5-2.8c-2-1-3.7-1.4-5.4-1.3c-1.5,1.1-3.9,3.1-7.3,6.2
				c-3.1,2.8-5.6,4.8-7.6,6.1c-0.9,0.6-1.9,0.3-2.8-0.9c-1.2-1.6-1.5-2.8-1-3.7c1.1-1.8,3.2-3.8,6.4-6c3.7-2.4,6.1-4.3,7.3-5.6
				c0.3-0.4,0.4-1.1,0.1-2c-0.3-1-0.3-1.6-0.2-1.8c0.2-0.2,0.4-0.4,0.8-0.5c0.4-0.1,1,0,1.9,0.4c0.9,0.4,1.5,0.4,1.8,0.2
				c2.4-1.7,6.7-5.1,12.8-10.1c5.3-4.4,9.5-7.6,12.7-9.7c0.7-0.5,1.5-0.4,2.4,0.2c0.6,0.4,1.1,1.1,1.3,1.8c0.5,2,0.2,4.2-1,6.7
				c-1,2.1-2.1,4.1-3.2,6.2C488.9,236.8,485.1,247.4,482.7,256.2z M481.7,236c1-1.8,2.1-3.9,3.1-6.4c0.8-2.2,1.7-4.3,2.5-6.4
				c-4,2.9-7.9,5.9-11.5,9C476.6,232.5,478.6,233.8,481.7,236z"/>
		</g>
		<g>
			<path fill="#361633" d="M170.8,280.3c1.3,2.8,1.5,6.1,0.6,9.9c-1,3.3-2.1,6.7-3.1,10c0.6,0.6,1.5,0.7,2.5,0.4c1-0.3,2-0.5,3-0.8
				c5.5-0.4,9.6,1,12.1,4.2c2,2.5,2.9,5.5,2.8,9c-0.1,2.7-0.8,5.8-2.2,9.4c-1.2,2.9-2.3,5.8-3.5,8.7c-0.3,0.7-0.7,1.3-1.4,1.8
				c-1.5,1.1-2.9,1.3-4.4,0.6c-2.8-3.8-5.6-7.6-8.3-11.3c-3.3-4.5-5.9-8.3-7.7-11.5c-1.4,0.1-2.4-0.3-3-1c-0.3-0.4-0.4-0.9-0.3-1.5
				c0.1-0.6,0.2-1.3,0.5-2.1c-4.7-7.1-9.4-13.4-14-18.9c-2.4,1.2-4.5,1.3-6.3,0.4c-0.2-0.1-0.3-0.5-0.4-1c-0.1-0.5-0.2-0.9-0.4-1.1
				c0.4-1.5,1.3-2.8,2.5-3.7c0.9-0.7,3.1-2,6.8-3.9c1.8-1,4-1.7,6.5-2.2c6.7-1.2,11.4-1,14,0.7C169,277.7,170.2,279,170.8,280.3z
				 M180.1,309.4c-0.3-0.6-0.6-1.1-0.9-1.5c-1-1.3-2.4-2.2-4-2.5c-3.1,0.6-5,1.2-5.6,1.7c-0.4,0.3-0.6,0.6-0.8,1
				c0.4,0.4,0.8,0.9,1.2,1.4c0.7,0.9,1.7,2.5,2.9,4.6c1.2,2.1,2.2,3.7,3,4.6c1.1,1.4,2.3,2.6,3.5,3.4c0.1-1,0.4-2.3,1-3.9
				c0.6-1.6,0.9-2.8,0.9-3.7C181.4,313,181,311.3,180.1,309.4z M162,281.8c-1.5-1.5-3.8-1.7-6.9-0.7c-0.5,0.1-1.2,0.3-2.3,0.4
				c-0.8,0.1-1.4,0.2-1.7,0.5c-0.2,0.1-0.3,0.3-0.5,0.6c0.5,0.8,1.1,1.6,1.8,2.4c0.9,1.2,2.5,3,4.8,5.6c2.1,2.4,3.7,4.4,4.7,5.8
				c0.3-0.2,0.6-0.8,0.9-1.8c0.3-0.9,0.4-1.5,0.5-1.6c0.9-1.6,1.2-3.6,1.1-5.8C164.1,285.1,163.4,283.2,162,281.8z"/>
			<path fill="#361633" d="M209.1,284.7c-0.1,0.1-1.2,4-3.5,11.6c-1.3,4.4-2.7,8.1-4.2,10.9c-0.2,0.3-0.4,0.6-0.6,0.8
				c-0.6,0.5-1.5,0.5-2.7,0.1c-1.6-0.4-2.5-0.7-2.5-0.7c-3.1-3.8-7.1-9.5-11.9-16.9c-5.1-7.9-8.9-13.5-11.4-16.8
				c-1.7-2.3-3.5-4.3-5.2-6.2c0.1-1,0.6-1.9,1.5-2.6c1.7-1.3,3.1-1.4,4.4-0.4c2.9,3.5,7,9.1,12.1,16.7c5.2,7.6,9.2,13.2,12.1,16.7
				c0.8-1.5,1.7-3.7,2.7-6.5c1-3.2,1.8-5.4,2.4-6.6c0.2-0.2,0.6-0.5,1.1-1c0.5-0.5,0.9-0.9,1.1-1.1c0.9-0.7,1.8-0.8,2.8-0.4
				C208.5,282.8,209.1,283.6,209.1,284.7z"/>
			<path fill="#361633" d="M238.4,269.2c0.8,0.5,1.4,1,1.8,1.6c0.7,0.9,0.9,2,0.7,3.2c-0.2,1.2-0.5,1.9-0.8,2.1
				c-2.5,1.3-5.2,0.6-8.2-2.1c-3.2-2.9-6.1-5.1-8.7-6.7c-1.4,1.3-2.8,2.6-4.2,3.9c-1.6,1.6-2.5,3.1-2.8,4.7c0.6,1.8,1.8,4.7,3.7,8.8
				c1.7,3.8,2.9,6.8,3.5,9.1c0.3,1.1-0.3,1.9-1.7,2.4c-1.8,0.6-3.1,0.6-3.9-0.2c-1.4-1.6-2.7-4.2-3.8-7.9c-1.2-4.3-2.2-7.1-3.1-8.6
				c-0.3-0.4-0.9-0.7-1.9-0.7c-1,0-1.6-0.1-1.8-0.4c-0.2-0.2-0.3-0.5-0.2-0.9c0-0.4,0.3-1,0.9-1.7c0.6-0.7,0.8-1.3,0.7-1.6
				c-0.9-2.8-2.8-7.9-5.8-15.3c-2.6-6.4-4.4-11.4-5.4-15.1c-0.2-0.8,0.1-1.6,0.9-2.2c0.6-0.5,1.3-0.7,2.1-0.7
				c2.1,0.1,4.1,1.1,6.1,2.9c1.7,1.6,3.3,3.2,4.9,4.9C221.8,257.4,230.8,264.3,238.4,269.2z M218.9,264c-1.4-1.5-3.1-3.2-5.1-4.9
				c-1.8-1.4-3.6-2.9-5.4-4.3c1.5,4.7,3.2,9.3,5.1,13.7C214.1,267.8,215.9,266.3,218.9,264z"/>
		</g>
		<g>
			<path fill="#361633" d="M712.3,77.8c-0.7,3-2.5,5.8-5.5,8.3c-2.8,2-5.7,4-8.5,6c0.2,0.8,0.8,1.5,1.7,1.9c1,0.4,1.9,0.8,2.8,1.2
				c4.7,3,7,6.6,7,10.7c0,3.2-1.1,6.1-3.2,8.8c-1.7,2.1-4.1,4.1-7.4,6.2c-2.7,1.6-5.4,3.2-8,4.8c-0.7,0.4-1.4,0.6-2.2,0.6
				c-1.8,0-3.1-0.7-3.9-2.2c0.1-4.7,0.2-9.4,0.3-14c0.1-5.6,0.4-10.2,0.8-13.9c-1.2-0.8-1.8-1.7-1.8-2.7c0-0.5,0.2-1,0.6-1.4
				c0.4-0.4,1-0.9,1.7-1.4c0.6-8.5,0.7-16.4,0.3-23.5c-2.6-0.5-4.4-1.7-5.2-3.5c-0.1-0.2,0-0.6,0.3-1c0.2-0.4,0.4-0.8,0.4-1.1
				c1.3-1,2.7-1.4,4.3-1.5c1.1,0,3.7,0.3,7.7,1c2.1,0.3,4.2,1.1,6.5,2.2c6.1,3.1,9.6,6.1,10.7,9.1C712.4,74.6,712.6,76.4,712.3,77.8
				z M702,106.6c0.1-0.6,0.2-1.2,0.2-1.8c0-1.7-0.6-3.2-1.6-4.4c-2.9-1.4-4.7-2.1-5.5-2.1c-0.4,0-0.9,0.1-1.3,0.3
				c0.1,0.6,0.1,1.2,0.1,1.8c0,1.2-0.1,3-0.4,5.4c-0.3,2.4-0.4,4.3-0.4,5.5c0,1.8,0.2,3.4,0.7,4.9c0.7-0.8,1.7-1.6,3.1-2.5
				c1.4-0.9,2.4-1.7,3-2.3C700.9,110.2,701.6,108.6,702,106.6z M704.4,73.7c-0.3-2.1-2-3.7-5.1-4.8c-0.4-0.2-1.2-0.5-2.1-1.1
				c-0.7-0.4-1.2-0.7-1.7-0.7c-0.2,0-0.5,0.1-0.8,0.2c-0.1,1-0.1,2-0.1,3c0,1.5,0.1,3.9,0.4,7.4c0.2,3.2,0.3,5.7,0.2,7.5
				c0.4,0,1-0.3,1.8-0.9c0.8-0.6,1.2-0.9,1.3-1c1.7-0.8,3.2-2.1,4.4-4C704.1,77.5,704.6,75.6,704.4,73.7z"/>
			<path fill="#361633" d="M740.1,104.5c-0.1,0.1-3.4,2.4-9.8,7.1c-3.7,2.7-7.1,4.7-10,6c-0.3,0.2-0.7,0.3-1,0.3
				c-0.8,0-1.5-0.5-2.2-1.5c-1-1.3-1.6-2-1.6-2.1c-0.1-4.9,0.1-11.8,0.8-20.6c0.8-9.4,1.2-16.1,1.1-20.3c0-2.9-0.1-5.6-0.4-8.1
				c0.7-0.7,1.6-1.1,2.8-1.1c2.1,0,3.4,0.8,3.7,2.3c0.2,4.6,0,11.5-0.5,20.6c-0.5,9.2-0.7,16-0.6,20.6c1.6-0.7,3.6-1.9,6.1-3.6
				c2.7-1.9,4.7-3.2,5.9-3.8c0.3,0,0.8-0.1,1.5-0.2c0.7-0.1,1.2-0.2,1.6-0.2c1.1,0,1.9,0.4,2.4,1.3
				C740.7,102.6,740.7,103.6,740.1,104.5z"/>
			<path fill="#361633" d="M772.8,110c0.3,0.9,0.5,1.7,0.5,2.4c0,1.1-0.5,2.1-1.4,2.9c-0.9,0.8-1.6,1.2-1.9,1.2
				c-2.7-0.5-4.5-2.7-5.2-6.6c-0.8-4.2-1.8-7.8-2.8-10.7c-1.9,0.2-3.8,0.4-5.7,0.5c-2.2,0.3-3.9,1-5.1,2c-0.6,1.7-1.4,4.8-2.4,9.3
				c-0.9,4.1-1.8,7.2-2.7,9.3c-0.4,1-1.4,1.3-2.9,0.9c-1.9-0.6-2.8-1.4-3-2.5c-0.2-2.1,0.4-5,1.8-8.6c1.7-4.1,2.6-7,2.7-8.7
				c0.1-0.5-0.3-1.1-1.1-1.7c-0.8-0.6-1.2-1.1-1.2-1.4c0-0.3,0.1-0.6,0.4-0.9c0.3-0.3,0.8-0.6,1.8-0.8c0.9-0.2,1.4-0.5,1.5-0.9
				c1-2.8,2.6-8,4.7-15.6c1.8-6.6,3.4-11.7,4.9-15.2c0.3-0.8,1-1.2,2.1-1.2c0.8,0,1.5,0.2,2.1,0.7c1.6,1.3,2.6,3.3,3.1,6
				c0.3,2.3,0.7,4.6,1,6.9C766.7,90.6,769.7,101.4,772.8,110z M760.4,94c-0.2-2.1-0.6-4.4-1.1-7c-0.6-2.2-1.1-4.5-1.6-6.7
				c-1.7,4.7-3.1,9.3-4.3,14C754.3,94.1,756.6,94,760.4,94z"/>
		</g>
	</g>
</g>
</svg>
